<svg width="388" height="352" viewBox="0 0 388 352" fill="none" xmlns="http://www.w3.org/2000/svg">
<circle cx="216" cy="180" r="172" fill="#E0E9FA"/>
<path d="M370.001 86V79C370.001 76.7909 368.21 75 366.001 75H340.723C335.197 75 330.385 78.7746 329.069 84.1422L328 88.5L282.079 279.683L158.048 271L157 285.963L290.894 295.337L294.031 294.148L343.06 90H366.001C368.21 90 370.001 88.2091 370.001 86Z" fill="#1878C4"/>
<path d="M111.5 93L338.5 108.5L309.473 229.968C307.459 238.394 299.729 244.19 291.077 243.762L139.671 236.275C130.69 235.831 123.415 228.827 122.629 219.87L111.5 93Z" fill="#4EB4F4"/>
<path d="M243.217 212.263C239.183 211.3 236.696 207.247 237.665 203.215L253.274 138.279C254.24 134.257 258.282 131.777 262.306 132.737C266.34 133.699 268.827 137.753 267.858 141.785L252.25 206.72C251.283 210.743 247.241 213.223 243.217 212.263Z" fill="#1878C4"/>
<path d="M243.219 212.263C239.185 211.3 236.698 207.246 237.667 203.214L251.92 143.952C252.888 139.93 256.929 137.451 260.953 138.411C264.987 139.373 267.474 143.427 266.504 147.46L252.251 206.721C251.284 210.743 247.243 213.223 243.219 212.263Z" fill="#3694DC"/>
<path d="M192.391 208.139C196.518 207.737 199.536 204.061 199.127 199.934L192.534 133.476C192.125 129.359 188.46 126.35 184.343 126.751C180.215 127.154 177.197 130.83 177.607 134.956L184.2 201.415C184.608 205.532 188.273 208.541 192.391 208.139Z" fill="#1878C4"/>
<path d="M192.39 208.139C196.518 207.737 199.536 204.061 199.126 199.933L193.101 139.281C192.692 135.164 189.027 132.156 184.91 132.557C180.782 132.96 177.764 136.636 178.174 140.763L184.199 201.416C184.608 205.533 188.273 208.541 192.39 208.139Z" fill="#3694DC"/>
<path d="M169.691 96.9727C166.898 126.337 145.294 150.216 117.063 156.424L111.5 93L169.691 96.9727Z" fill="#3595DD"/>
<path d="M34.7532 61.1352C35.0501 59.828 34.23 58.528 32.9224 58.2328L3.43593 51.5774C2.13073 51.2829 0.833576 52.1011 0.537292 53.4059C0.240466 54.7131 1.06054 56.0132 2.36813 56.3083L31.8546 62.9637C33.1598 63.2583 34.4569 62.44 34.7532 61.1352Z" fill="#F2763C"/>
<path d="M66.46 28.4224C67.7025 27.9189 68.3007 26.5027 67.7953 25.2609L58.2471 1.79912C57.7428 0.559975 56.3302 -0.0366593 55.0903 0.465774C53.8478 0.969276 53.2496 2.3855 53.755 3.62728L63.3032 27.0891C63.8075 28.3282 65.2201 28.9248 66.46 28.4224Z" fill="#F2763C"/>
<path d="M43.9736 41.9866C44.9381 41.0561 44.9649 39.5195 44.0334 38.5559L17.1747 10.7731C16.2445 9.81096 14.7108 9.78422 13.7476 10.7134C12.7831 11.6439 12.7563 13.1804 13.6878 14.144L40.5465 41.9268C41.4767 42.889 43.0104 42.9157 43.9736 41.9866Z" fill="#F2763C"/>
<circle cx="102.5" cy="90.5" r="58.5" fill="#F2763C"/>
<circle cx="154" cy="279" r="22" fill="#4EB4F4"/>
<circle cx="154" cy="279" r="13" fill="#FCFFFF"/>
<circle cx="284" cy="288" r="22" fill="#4EB4F4"/>
<circle cx="284" cy="288" r="13" fill="#FCFFFF"/>
<path d="M131 93.5C131 111.792 123.031 123 106.5 123C89.969 123 82 111.792 82 93.5C82 75.2076 89.969 64 106.5 64C123.031 64 131 75.2076 131 93.5Z" fill="#DD3B0A"/>
<path d="M116 93.5C116 103.731 112.91 110 106.5 110C100.09 110 97 103.731 97 93.5C97 83.2687 100.09 77 106.5 77C112.91 77 116 83.2687 116 93.5Z" fill="#F2763C"/>
<path d="M103.5 60C120.031 60 128 71.2076 128 89.5C128 107.792 120.031 119 103.5 119C86.969 119 79 107.792 79 89.5C79 71.2076 86.969 60 103.5 60ZM103.5 73C97.09 73 94 79.2687 94 89.5C94 99.7313 97.09 106 103.5 106C109.91 106 113 99.7313 113 89.5C113 79.2687 109.91 73 103.5 73Z" fill="#FAFFFA"/>
</svg>
