<?xml version="1.0" encoding="utf-8"?>
<!-- Generator: Adobe Illustrator 16.0.0, SVG Export Plug-In . SVG Version: 6.00 Build 0)  -->
<!DOCTYPE svg PUBLIC "-//W3C//DTD SVG 1.1//EN" "http://www.w3.org/Graphics/SVG/1.1/DTD/svg11.dtd">
<svg version="1.1" id="Layer_1" xmlns="http://www.w3.org/2000/svg" xmlns:xlink="http://www.w3.org/1999/xlink" x="0px" y="0px"
	 width="50px" height="50px" viewBox="0 0 50 50" enable-background="new 0 0 50 50" xml:space="preserve">
<g display="none">
	<path display="inline" fill="#A97C50" d="M34.921,19.985c-0.239,2.035-0.47,3.997-0.706,6.01c-0.213,0-0.376,0-0.539,0
		c-1.383,0-2.766,0.014-4.148-0.009c-0.405-0.008-0.514,0.121-0.512,0.518c0.012,5.518,0.008,11.033,0.008,16.551
		c0,0.721-0.002,0.721-0.721,0.721c-2.158,0-4.316,0.002-6.474,0c-0.63,0-0.632,0-0.632-0.615c0-5.531-0.006-11.063,0.01-16.596
		c0.001-0.473-0.136-0.595-0.592-0.58c-1.033,0.033-2.067-0.002-3.1,0.017c-0.364,0.008-0.514-0.088-0.51-0.479
		c0.017-1.687,0.016-3.374,0-5.061c-0.004-0.389,0.144-0.489,0.51-0.483c1.063,0.02,2.127-0.006,3.191,0.014
		c0.372,0.007,0.503-0.099,0.498-0.486c-0.02-1.368-0.031-2.736,0.002-4.103c0.028-1.156,0.213-2.294,0.667-3.37
		c0.901-2.131,2.627-3.205,4.805-3.609c1.008-0.187,2.045-0.251,3.071-0.281c1.563-0.045,3.131-0.002,4.696-0.019
		c0.382-0.004,0.502,0.134,0.5,0.503c-0.014,1.702-0.014,3.404,0,5.106c0.003,0.388-0.155,0.496-0.52,0.491
		c-1.078-0.015-2.158-0.011-3.236,0.005c-0.301,0.004-0.605,0.047-0.897,0.12c-0.804,0.2-1.245,0.737-1.261,1.572
		c-0.022,1.23,0,2.462-0.016,3.692c-0.006,0.366,0.196,0.375,0.465,0.374c1.611-0.005,3.223-0.003,4.834-0.003
		C34.48,19.985,34.646,19.985,34.921,19.985z"/>
</g>
<g display="none">
	<path display="inline" fill="#FFFFFF" d="M30.343,11.008c0.162,0,0.327,0,0.491,0c0.18,0,0.357,0,0.536,0c0.135,0,0.271,0,0.401,0
		c0.029,0.015,0.059,0.041,0.088,0.044c1.759,0.193,3.258,0.922,4.508,2.171c0.053,0.053,0.168,0.081,0.244,0.066
		c1.494-0.304,2.9-0.842,4.229-1.588c0.079-0.045,0.161-0.081,0.29-0.144c-0.584,1.733-1.62,3.039-3.148,4.034
		c1.047-0.13,1.996-0.358,2.927-0.677c0.385-0.133,0.765-0.279,1.146-0.419c0,0.031,0,0.061,0,0.09
		c-0.016,0.015-0.037,0.027-0.049,0.043c-0.941,1.376-2.086,2.557-3.422,3.555c-0.066,0.051-0.127,0.165-0.124,0.247
		c0.076,1.902-0.125,3.775-0.578,5.621c-0.854,3.475-2.438,6.573-4.81,9.262c-1.963,2.227-4.301,3.941-7.032,5.107
		c-3.612,1.538-7.377,1.962-11.254,1.479c-2.493-0.313-4.843-1.097-7.055-2.286c-0.456-0.246-0.902-0.509-1.354-0.763
		c0-0.031,0-0.062,0-0.091c0.318,0.029,0.636,0.072,0.955,0.089c3.269,0.154,6.268-0.679,8.995-2.483
		c0.268-0.179,0.523-0.375,0.82-0.589c-3.906-0.178-6.225-3.024-6.785-5.131c1.024,0.168,2.036,0.182,3.04-0.115
		c-1.654-0.455-3.023-1.324-4.074-2.668c-1.056-1.35-1.56-2.889-1.559-4.642c1.026,0.55,2.078,0.865,3.266,0.922
		c-1.594-1.151-2.62-2.619-3.026-4.484c-0.405-1.859-0.134-3.625,0.816-5.302c3.971,4.679,8.979,7.246,15.1,7.676
		c-0.009-0.066-0.013-0.093-0.018-0.12c-0.18-0.908-0.208-1.816-0.061-2.731c0.497-3.085,2.888-5.511,5.968-6.055
		C29.992,11.096,30.167,11.048,30.343,11.008z"/>
</g>
<g display="none">
	<path display="inline" fill="#FFFFFF" d="M25.001,10.021c3.827,0,7.655-0.002,11.481,0c2.162,0.001,3.496,1.336,3.496,3.498
		c0.002,7.653,0.002,15.306,0,22.959c0,2.156-1.338,3.498-3.496,3.498c-7.674,0.004-15.35,0.004-23.022,0
		c-2.074,0-3.438-1.362-3.438-3.436c-0.002-7.695-0.002-15.39,0.001-23.084c0-2.075,1.359-3.433,3.438-3.435
		C17.307,10.018,21.155,10.021,25.001,10.021z M26.673,33.963c0-1.465-0.008-2.857,0.004-4.25c0.009-1.036-0.013-2.08,0.08-3.113
		c0.119-1.331,1.034-2.104,2.336-2.094c1.181,0.009,1.878,0.708,2.046,2.065c0.045,0.368,0.072,0.745,0.073,1.116
		c0.009,1.871,0.003,3.742,0.006,5.612c0,0.22,0.019,0.438,0.026,0.644c1.326,0,2.582,0,3.848,0c0-2.922,0.09-5.791-0.025-8.654
		c-0.109-2.73-1.826-4.297-4.479-4.347c-1.586-0.03-2.839,0.641-3.922,2.041c0-0.665,0-1.145,0-1.604c-1.307,0-2.518,0-3.714,0
		c0,4.229,0,8.396,0,12.584C24.196,33.963,25.393,33.963,26.673,33.963z M16.532,33.95c1.312,0,2.569,0,3.84,0
		c0-4.218,0-8.388,0-12.596c-1.291,0-2.549,0-3.84,0C16.532,25.557,16.532,29.729,16.532,33.95z M18.488,15.003
		c-1.319-0.021-2.351,0.976-2.367,2.286c-0.016,1.32,0.985,2.357,2.286,2.369c1.298,0.012,2.339-1.016,2.347-2.32
		C20.762,16.063,19.754,15.024,18.488,15.003z"/>
	<path display="inline" fill="#D42027" d="M26.673,33.963c-1.28,0-2.477,0-3.722,0c0-4.188,0-8.355,0-12.584
		c1.196,0,2.407,0,3.714,0c0,0.458,0,0.939,0,1.604c1.083-1.4,2.336-2.071,3.922-2.041c2.652,0.05,4.369,1.617,4.479,4.347
		c0.115,2.863,0.024,5.732,0.024,8.654c-1.266,0-2.521,0-3.848,0c-0.009-0.204-0.026-0.424-0.026-0.644
		c-0.003-1.87,0.002-3.741-0.006-5.612c-0.001-0.371-0.027-0.748-0.074-1.116c-0.166-1.357-0.863-2.056-2.045-2.065
		c-1.302-0.01-2.217,0.763-2.336,2.094c-0.093,1.033-0.072,2.077-0.08,3.113C26.665,31.105,26.673,32.498,26.673,33.963z"/>
	<path display="inline" fill="#D42027" d="M16.532,33.95c0-4.222,0-8.394,0-12.596c1.291,0,2.549,0,3.84,0c0,4.208,0,8.378,0,12.596
		C19.101,33.95,17.844,33.95,16.532,33.95z"/>
	<path display="inline" fill="#D42027" d="M18.488,15.003c1.266,0.021,2.274,1.06,2.266,2.334c-0.008,1.304-1.048,2.332-2.347,2.32
		c-1.301-0.012-2.301-1.048-2.286-2.369C16.138,15.979,17.169,14.982,18.488,15.003z"/>
</g>
<g display="none">
	<path display="inline" fill="#FFFFFF" d="M22.849,30.304c-0.456,1.789-0.864,3.499-1.328,5.194
		c-0.656,2.398-1.982,4.448-3.472,6.402c-0.078,0.101-0.332,0.214-0.354,0.188c-0.116-0.129-0.236-0.296-0.259-0.461
		c-0.398-2.881-0.362-5.729,0.387-8.568c0.775-2.945,1.411-5.926,2.089-8.896c0.059-0.254,0.023-0.559-0.057-0.813
		c-0.7-2.217-0.751-4.377,0.652-6.358c0.775-1.095,1.854-1.675,3.244-1.409c1.279,0.245,2.144,1.247,2.069,2.667
		c-0.06,1.157-0.346,2.312-0.617,3.447c-0.316,1.323-0.775,2.613-1.081,3.938c-0.398,1.725,0.879,3.373,2.653,3.53
		c1.959,0.174,3.336-0.798,4.42-2.287c1.228-1.681,1.791-3.619,2.049-5.653c0.201-1.604,0.314-3.221-0.165-4.796
		c-0.899-2.952-3.036-4.502-5.974-4.987c-2.816-0.463-5.475,0.003-7.819,1.749c-2.791,2.077-4.312,6.08-3.432,9.225
		c0.204,0.727,0.626,1.412,1.048,2.049c0.29,0.436,0.419,0.823,0.274,1.32c-0.128,0.436-0.217,0.881-0.339,1.316
		c-0.177,0.637-0.554,0.83-1.158,0.558c-1.883-0.851-2.937-2.393-3.492-4.314c-1.383-4.781,0.597-9.959,4.946-12.905
		c2.954-2.001,6.246-2.729,9.776-2.488c3.187,0.217,5.974,1.365,8.2,3.684c2.363,2.461,3.363,5.419,3.094,8.831
		c-0.204,2.586-0.77,5.055-2.146,7.282c-1.604,2.599-3.854,4.296-6.933,4.757C26.689,32.87,24.529,32.384,22.849,30.304z"/>
</g>
<g display="none">
	<path display="inline" fill="#FFFFFF" d="M40.934,21.767c0,2.169,0,4.338,0,6.506c-0.067,0.736-0.139,1.473-0.203,2.209
		c-0.09,1.018-0.272,2.013-0.67,2.959c-0.58,1.389-1.648,2.192-3.105,2.384c-1.292,0.169-2.602,0.25-3.903,0.267
		c-4.216,0.049-8.432,0.081-12.648,0.057c-2.354-0.015-4.713,0.016-7.057-0.303c-1.811-0.244-3.064-1.135-3.624-2.934
		c-0.398-1.282-0.535-2.602-0.578-3.924c-0.071-2.188-0.091-4.381-0.069-6.571c0.016-1.513,0.11-3.03,0.458-4.512
		c0.21-0.896,0.504-1.764,1.169-2.452c0.942-0.977,2.15-1.256,3.439-1.313c1.89-0.083,3.78-0.177,5.671-0.221
		c5.576-0.129,11.154-0.133,16.72,0.292c1.729,0.132,2.986,0.989,3.615,2.671c0.41,1.101,0.547,2.248,0.647,3.405
		C40.839,20.781,40.887,21.274,40.934,21.767z M29.23,25.012c-2.859-1.43-5.653-2.827-8.461-4.23c0,2.837,0,5.626,0,8.463
		C23.595,27.831,26.382,26.438,29.23,25.012z"/>
	<path display="inline" fill="#D42027" d="M29.23,25.012c-2.85,1.424-5.635,2.819-8.461,4.232c0-2.837,0-5.626,0-8.463
		C23.578,22.185,26.371,23.583,29.23,25.012z"/>
</g>
<g display="none">
	<path display="inline" fill="#FFFFFF" d="M40.934,25.234c0,2.711,0.023,5.423-0.006,8.135c-0.039,3.589-2.729,6.845-6.252,7.586
		c-0.611,0.13-1.246,0.195-1.869,0.195c-5.271,0.018-10.542,0.011-15.813,0.011c-3.8,0-7.214-2.91-7.805-6.668
		c-0.081-0.513-0.123-1.033-0.124-1.552C9.055,27.747,9.058,22.55,9.058,17.356c0-4.027,2.944-7.431,6.919-7.993
		c0.353-0.05,0.712-0.073,1.069-0.073c5.315-0.004,10.63-0.004,15.942-0.003c3.813,0,7.214,2.888,7.816,6.651
		c0.084,0.511,0.127,1.034,0.127,1.552c0.014,2.581,0.006,5.163,0.006,7.745C40.938,25.234,40.934,25.234,40.934,25.234z
		 M38.468,25.238c0-2.592,0.007-5.186-0.001-7.776c-0.01-3.246-2.469-5.696-5.709-5.696c-5.217,0-10.433-0.002-15.65,0.002
		c-1.076,0-2.082,0.28-2.98,0.876c-1.697,1.126-2.578,2.723-2.584,4.756c-0.017,5.13-0.006,10.26-0.005,15.391
		c0.001,0.271,0.013,0.541,0.035,0.813c0.245,2.861,2.661,5.078,5.539,5.078c5.26,0,10.52,0.004,15.78-0.007
		c0.418-0.001,0.848-0.051,1.254-0.149c2.599-0.623,4.313-2.829,4.32-5.543C38.473,30.4,38.468,27.818,38.468,25.238z"/>
	<path display="inline" fill="#FFFFFF" d="M25,33.243c-4.469,0-8.014-3.563-8.026-8.037c-0.013-4.454,3.697-8.064,8.125-8.014
		c4.077,0.047,7.949,3.311,7.928,8.048C33.007,30.107,29.001,33.316,25,33.243z M30.546,25.236c0.017-2.983-2.448-5.494-5.364-5.562
		c-3.086-0.073-5.664,2.382-5.728,5.424c-0.066,3.101,2.419,5.566,5.347,5.671C27.881,30.878,30.54,28.398,30.546,25.236z"/>
	<path display="inline" fill="#FFFFFF" d="M33.775,19.12c-1.187-0.002-2.096-0.917-2.09-2.101c0.004-1.183,0.922-2.094,2.104-2.091
		c1.184,0.003,2.091,0.917,2.088,2.104C35.875,18.218,34.965,19.122,33.775,19.12z"/>
</g>
<g display="none">
	<path display="inline" fill="#D42027" d="M24.978,24.315c-1.103,1.11-2.186,2.205-3.273,3.292c-1.975,1.974-3.958,3.938-5.926,5.92
		c-0.773,0.779-1.662,1.056-2.703,0.691c-0.291-0.102-0.572-0.292-0.801-0.502c-0.546-0.505-1.059-1.048-1.587-1.572
		c-0.896-0.892-0.923-2.448,0.098-3.463c2.259-2.244,4.507-4.501,6.759-6.754c1.87-1.87,3.756-3.724,5.604-5.616
		c1.043-1.068,2.642-1.075,3.697-0.016c3.534,3.551,7.077,7.095,10.618,10.642c0.571,0.574,1.146,1.147,1.718,1.723
		c0.875,0.879,1.045,2.019,0.451,3.072c-0.083,0.148-0.191,0.289-0.313,0.41c-0.598,0.594-1.176,1.211-1.813,1.76
		c-0.777,0.676-2.174,0.646-2.93-0.063c-0.991-0.929-1.944-1.898-2.907-2.857c-2.175-2.166-4.347-4.338-6.52-6.506
		C25.107,24.43,25.058,24.389,24.978,24.315z"/>
</g>
<g display="none">
	<path display="inline" d="M576.766,16.47c1.452,1.438,2.926,2.884,4.387,4.343c4.446,4.442,8.902,8.876,13.332,13.337
		c3.072,3.098,3.161,7.865,0.249,10.955c-3.062,3.246-8.081,3.293-11.313,0.088c-2.698-2.676-5.378-5.371-8.063-8.061
		c-3.202-3.206-6.401-6.414-9.617-9.637c-8.508,4.672-17.345,5.504-26.456,2.221c-6.847-2.467-12.124-6.941-15.843-13.195
		c-7.456-12.54-4.984-28.879,5.803-38.609c10.896-9.828,27.264-10.679,38.943-2.229C580.34-15.525,585.08,2.033,576.766,16.47z
		 M550.081-23.449c-13.374-0.009-24.231,10.829-24.25,24.206s10.812,24.235,24.19,24.255c13.366,0.021,24.259-10.797,24.271-24.103
		C574.308-12.582,563.514-23.44,550.081-23.449z"/>
	<path display="inline" d="M569.454,0.766c-1.375,0-2.703,0-3.977,0c-0.979-9.282-6.078-14.365-15.354-15.402
		c0-1.237,0-2.563,0-3.89C559.234-19.064,569.573-10.883,569.454,0.766z"/>
</g>
<g>
	<path fill-rule="evenodd" clip-rule="evenodd" fill="#D51912" d="M24.753,38.601c-2.242,0-4.486,0.062-6.725-0.016
		c-2.953-0.101-3.867-1.153-3.657-4.002c0.413-5.61,4.887-9.407,11.014-9.346c5.522,0.056,9.897,4.188,10.256,9.543
		c0.167,2.471-0.89,3.719-3.286,3.788c-2.532,0.072-5.067,0.016-7.602,0.016C24.753,38.59,24.753,38.595,24.753,38.601z"/>
	<path fill-rule="evenodd" clip-rule="evenodd" fill="#D51912" d="M30.688,17.185c-0.054,3.327-2.418,5.594-5.803,5.564
		c-3.232-0.029-5.606-2.513-5.563-5.819c0.043-3.237,2.509-5.591,5.821-5.554C28.408,11.411,30.741,13.855,30.688,17.185z"/>
</g>
<circle fill-rule="evenodd" clip-rule="evenodd" fill="none" stroke="#D51912" stroke-width="3" stroke-miterlimit="10" cx="25.005" cy="25.514" r="20.034"/>
</svg>
